<?xml version="1.0" encoding="utf-8"?>
<!-- Generator: Adobe Illustrator 24.0.2, SVG Export Plug-In . SVG Version: 6.00 Build 0)  -->
<svg version="1.1" id="Layer_1" xmlns="http://www.w3.org/2000/svg" xmlns:xlink="http://www.w3.org/1999/xlink" x="0px" y="0px"
	 viewBox="0 0 1076 640" style="enable-background:new 0 0 1076 640;" xml:space="preserve">
<style type="text/css">
	.st0{fill-rule:evenodd;clip-rule:evenodd;fill:#FFFFFF;}
	.st1{fill-rule:evenodd;clip-rule:evenodd;}
	.st2{fill-rule:evenodd;clip-rule:evenodd;fill:#7291CA;}
	.st3{fill:#7291CA;}
	.st4{fill:#FFFFFF;}
	.st5{font-family:'Montserrat-Bold';}
	.st6{font-size:17.9445px;}
</style>
<g>
	<g>
		<path class="st2" d="M131.71,377.12h-26.97v-98.69h27.52v11.01c8.32-8.44,17.67-12.66,28.07-12.66c10.39,0,19.11,3.67,26.14,11.01
			c7.03,7.34,10.55,17.12,10.55,29.35v59.98h-26.6v-64.74h8.18l-13.56-9.14l-1.8-1.21c-0.78-0.67-1.63-1.25-2.55-1.72l-9.21-6.21
			l-13.55,9.14l-13.55,9.14h7.33V377.12z"/>
		<path class="st3" d="M278.69,311.53c-2.44-5.37-5.96-8.97-10.57-10.78c-4.6-1.81-9.49-1.86-14.65-0.13
			c-5.16,1.73-9.36,4.87-12.61,9.44c-3.24,4.57-4.32,9.63-3.23,15.2L278.69,311.53z M311.73,347.87
			c-7.22,13.5-17.93,22.63-32.14,27.38c-14.21,4.75-27.42,4.3-39.62-1.36c-12.21-5.65-20.77-15.84-25.7-30.58
			c-4.93-14.73-4.12-28.02,2.43-39.88c6.54-11.86,16.25-19.94,29.13-24.25c12.87-4.3,25.1-4.07,36.69,0.69
			c11.59,4.77,19.65,13.93,24.19,27.5l4.66,13.92l-68.2,22.8c2.52,4.83,6.58,8.11,12.19,9.85c5.61,1.73,11.25,1.65,16.94-0.25
			c9.16-3.06,15.67-8.66,19.53-16.78L311.73,347.87z"/>
		<path class="st3" d="M424.53,327.78c0,14.31-4.95,26.35-14.86,36.14c-9.91,9.78-22.35,14.68-37.33,14.68
			c-14.98,0-27.43-4.89-37.33-14.68c-9.91-9.78-14.86-21.83-14.86-36.14c0-14.31,4.95-26.39,14.86-36.23
			c9.9-9.84,22.35-14.77,37.33-14.77c14.98,0,27.42,4.92,37.33,14.77C419.58,301.39,424.53,313.47,424.53,327.78 M347.85,327.78
			c0,8.07,2.29,14.64,6.88,19.72c4.58,5.07,10.46,7.61,17.61,7.61c7.15,0,13.02-2.54,17.61-7.61c4.58-5.07,6.88-11.65,6.88-19.72
			c0-8.07-2.29-14.68-6.88-19.81c-4.59-5.14-10.46-7.7-17.61-7.7c-7.15,0-13.03,2.57-17.61,7.7
			C350.14,313.1,347.85,319.71,347.85,327.78z"/>
		<path d="M486.19,378.22c17.43,0,31.92-7.34,39.62-20.91l-13.39-8.44c-6.24,9.54-15.78,13.94-26.42,13.94
			c-19.08,0-33.39-13.21-33.39-34.3c0-20.73,14.31-34.12,33.39-34.12c10.64,0,20.18,4.4,26.42,13.94l13.39-8.62
			c-7.7-13.58-22.2-20.73-39.62-20.73c-29.9,0-51.36,20.54-51.36,49.53C434.83,357.5,456.29,378.22,486.19,378.22"/>
		<rect x="537.14" y="241.01" width="17.61" height="136.11"/>
		<path d="M619.82,362.81c-18.71,0-32.84-13.58-32.84-34.3c0-20.73,14.12-34.12,32.84-34.12c18.71,0,32.65,13.39,32.65,34.12
			C652.47,349.24,638.53,362.81,619.82,362.81 M619.82,378.22c29.17,0,50.45-20.73,50.45-49.71c0-28.98-21.28-49.53-50.45-49.53
			c-29.17,0-50.63,20.54-50.63,49.53C569.19,357.5,590.65,378.22,619.82,378.22z"/>
		<path d="M757.53,279.9v50.26c0,20.91-11.74,32.28-30.08,32.28c-16.69,0-26.23-9.54-26.23-28.62V279.9H683.6v55.95
			c0,28.62,16.69,42.37,41.83,42.37c13.76,0,25.86-5.69,33.02-15.78v14.68h16.69V279.9H757.53z"/>
		<path d="M834.9,362.81c-18.71,0-32.84-13.58-32.84-34.3c0-20.73,14.12-34.12,32.84-34.12c18.53,0,32.65,13.39,32.65,34.12
			C867.55,349.24,853.43,362.81,834.9,362.81 M867.37,241.01v53.57c-8.07-10.46-20.18-15.59-33.94-15.59
			c-28.43,0-49.16,19.81-49.16,49.53c0,29.72,20.73,49.71,49.16,49.71c14.31,0,26.78-5.5,34.67-16.51v15.41h16.88V241.01H867.37z"/>
		<polygon class="st2" points="983.26,297.85 921.91,340.32 921.91,366.56 983.26,324.09 		"/>
		<polygon class="st2" points="921.91,261.02 959.5,288.82 942.64,300.49 921.91,285.11 		"/>
		<text transform="matrix(1 0 0 1 957.2241 224.0992)" class="st5 st6">R</text>
		<path d="M955.52,210.63c-1.84,2.23-2.83,5.17-2.53,8.28c0.3,3.11,1.83,5.8,4.07,7.64c2.22,1.83,5.13,2.82,8.21,2.54l0.14-0.01
			c3.08-0.32,5.75-1.84,7.57-4.06c1.83-2.22,2.82-5.13,2.54-8.21l-0.01-0.14c-0.32-3.08-1.84-5.75-4.06-7.58
			c-2.23-1.84-5.18-2.83-8.29-2.53C960.06,206.86,957.36,208.39,955.52,210.63 M951.3,219.07c-0.35-3.58,0.79-6.95,2.91-9.52
			c2.12-2.57,5.22-4.33,8.8-4.68c3.57-0.34,6.95,0.79,9.52,2.91c2.57,2.12,4.33,5.22,4.68,8.8l0,0.02c0.34,3.57-0.8,6.94-2.91,9.5
			c-2.12,2.57-5.22,4.33-8.79,4.68h-0.02c-3.57,0.34-6.94-0.8-9.5-2.91C953.41,225.75,951.64,222.65,951.3,219.07z"/>
	</g>
	<path d="M457.56,425.75l-15.44-18.96h-4.28v28H443v-18.96l15.44,18.96h4.28v-28h-5.16V425.75z M511.64,406.4
		c-8.68,0-15.08,6.12-15.08,14.4c0,8.28,6.4,14.4,15.08,14.4s15.08-6.08,15.08-14.4C526.72,412.48,520.32,406.4,511.64,406.4z
		 M511.64,430.63c-5.64,0-9.84-4.12-9.84-9.84c0-5.72,4.2-9.84,9.84-9.84c5.64,0,9.84,4.12,9.84,9.84
		C521.48,426.51,517.28,430.63,511.64,430.63z M269.92,422.71h13.52v-4.28h-13.52v-7.28h15.24v-4.36h-20.44v28h21v-4.36h-15.8
		V422.71z M332.96,410.96c2.92,0,5.44,1.08,7.48,3.28l3.36-3.16c-2.6-3.04-6.52-4.68-11.08-4.68c-8.6,0-15,6.04-15,14.4
		c0,8.36,6.4,14.4,14.96,14.4c4.6,0,8.52-1.64,11.12-4.68l-3.36-3.2c-2.04,2.24-4.56,3.32-7.48,3.32c-5.8,0-10-4.08-10-9.84
		C322.96,415.04,327.16,410.96,332.96,410.96z M396.8,418.35h-14.48V406.8h-5.2v28h5.2v-12h14.48v12h5.2v-28h-5.2V418.35z
		 M208.72,411.2H218v23.6h5.2v-23.6h9.28v-4.4h-23.76V411.2z M565.76,406.8h-5.2v28h19.84v-4.4h-14.64V406.8z M833.12,414.52
		c0-2.12,1.76-3.8,6.08-3.8c2.44,0,5.2,0.72,7.72,2.2l1.64-4.04c-2.44-1.6-5.96-2.48-9.32-2.48c-7.68,0-11.28,3.84-11.28,8.36
		c0,10.4,16.64,6.44,16.64,12.48c0,2.08-1.84,3.64-6.2,3.64c-3.44,0-7-1.28-9.24-3.08l-1.8,4.04c2.32,2,6.68,3.36,11.04,3.36
		c7.68,0,11.32-3.84,11.32-8.32C849.71,416.59,833.12,420.47,833.12,414.52z M733.52,434.79h5.2v-28h-5.2V434.79z M779.8,422.71
		h13.52v-4.28H779.8v-7.28h15.24v-4.36H774.6v28h21v-4.36h-15.8V422.71z M687.72,410.96c3,0,5.52,1,7.72,3.2l3.28-3.2
		c-2.64-3-6.56-4.56-11.24-4.56c-8.76,0-15.16,6.04-15.16,14.4c0,8.36,6.4,14.4,15.08,14.4c3.96,0,8.04-1.2,10.96-3.56v-11.16h-4.92
		v8.72c-1.8,1.04-3.76,1.44-5.76,1.44c-5.92,0-10.12-4.16-10.12-9.84C677.56,414.99,681.76,410.96,687.72,410.96z M625.4,406.4
		c-8.68,0-15.08,6.12-15.08,14.4c0,8.28,6.4,14.4,15.08,14.4s15.08-6.08,15.08-14.4C640.48,412.48,634.08,406.4,625.4,406.4z
		 M625.4,430.63c-5.64,0-9.84-4.12-9.84-9.84c0-5.72,4.2-9.84,9.84-9.84c5.64,0,9.84,4.12,9.84,9.84
		C635.24,426.51,631.04,430.63,625.4,430.63z"/>
</g>
</svg>
